<svg xmlns="http://www.w3.org/2000/svg" xmlns:xlink="http://www.w3.org/1999/xlink" viewBox="0 0 1200 470" width="1200" height="470" role="img" aria-label="PepeBot emote matrix: how the physical bot reacts to system events" ><title>PepeBot emote matrix: how the physical bot reacts to system events</title><style>text{font-family:'JetBrains Mono','SFMono-Regular','Cascadia Mono',Consolas,'Liberation Mono',Menlo,monospace}
@keyframes eb{0%,100%{opacity:.45}50%{opacity:1}}
.eye-IDLE{animation:eb 3.6s ease-in-out infinite}
.eye-FEED{animation:eb .55s ease-in-out infinite}
.eye-CRUNCH{animation:ec .9s infinite}@keyframes ec{0%,8%,18%{opacity:1}4%,13%,30%,100%{opacity:.35}}
.eye-PAYOUT{opacity:1}
.eye-HALT{animation:eh 6s infinite}@keyframes eh{0%,15%{opacity:.9}20%{opacity:.12}22%{opacity:.5}24%,80%{opacity:.12}90%,100%{opacity:.9}}
.led-IDLE{fill:#4d6b25;animation:lw 2.4s ease-in-out infinite}
.led-FEED{fill:#ffae1a;animation:lc .8s steps(1) infinite}
.led-CRUNCH{fill:#14f195;animation:lc .25s steps(1) infinite}
.led-PAYOUT{fill:#b8ff4f;animation:lc .7s steps(1) infinite}
.led-HALT{fill:#ff2d17;animation:ls .5s steps(1) infinite}
@keyframes lw{0%,100%{opacity:.25}50%{opacity:.9}}
@keyframes lc{0%{opacity:1}30%{opacity:.15}}
@keyframes ls{0%{opacity:1}50%{opacity:.08}}
@media (prefers-reduced-motion: reduce){*{animation:none!important}}</style><defs><filter id="g" x="0" y="0" width="100%" height="100%"><feTurbulence type="fractalNoise" baseFrequency="0.9" numOctaves="2" seed="31" result="n"/><feColorMatrix in="n" type="matrix" values="0 0 0 0 0.55  0 0 0 0 0.42  0 0 0 0 0.25  0 0 0 -2.2 1.25" result="spots"/><feComposite in="spots" in2="SourceGraphic" operator="in"/></filter><filter id="gs" x="0" y="0" width="100%" height="100%"><feTurbulence type="turbulence" baseFrequency="0.012 0.35" numOctaves="1" seed="34" result="t"/><feColorMatrix in="t" type="matrix" values="0 0 0 0 0.7  0 0 0 0 0.75  0 0 0 0 0.6  0 0 0 -3 1.05"/></filter><filter id="glow" x="-20%" y="-60%" width="140%" height="220%"><feGaussianBlur stdDeviation="1.4" result="b"/><feMerge><feMergeNode in="b"/><feMergeNode in="SourceGraphic"/></feMerge></filter><pattern id="unlit" width="3.2" height="3.2" patternUnits="userSpaceOnUse" x="0" y="0"><rect width="2.2" height="2.2" fill="#4d6b25" opacity=".22"/></pattern><radialGradient id="eyeR" cx=".45" cy=".42"><stop offset="0" stop-color="#ffd2c2"/><stop offset=".25" stop-color="#ff2d17"/><stop offset="1" stop-color="#6b0a02"/></radialGradient></defs><rect width="1200" height="470" fill="#030504"/><path d="M32 20H232L244 32V438L232 450H32L20 438V32Z" fill="#0a0e0b" stroke="#34471d" stroke-width="2" /><circle cx="28" cy="28" r="2.4" fill="#34471d"/><circle cx="27.3" cy="27.3" r="1.1" fill="#9dbb52" opacity=".55"/><circle cx="236" cy="28" r="2.4" fill="#34471d"/><circle cx="235.3" cy="27.3" r="1.1" fill="#9dbb52" opacity=".55"/><circle cx="28" cy="442" r="2.4" fill="#34471d"/><circle cx="27.3" cy="441.3" r="1.1" fill="#9dbb52" opacity=".55"/><circle cx="236" cy="442" r="2.4" fill="#34471d"/><circle cx="235.3" cy="441.3" r="1.1" fill="#9dbb52" opacity=".55"/><text x="36" y="50" font-size="10" fill="#6c7a66" text-anchor="start" font-weight="400" letter-spacing="2" >EVENT</text><text x="36" y="68" font-size="13" fill="#c9d6bf" text-anchor="start" font-weight="700" letter-spacing="0" >system.idle</text><rect x="32" y="80" width="200" height="36" fill="#000"/><rect x="32" y="80" width="200" height="36" fill="url(#unlit)"/><path d="M3.2 0.0h2.3v2.3h-2.3zM6.4 0.0h2.3v2.3h-2.3zM9.6 0.0h2.3v2.3h-2.3zM6.4 3.2h2.3v2.3h-2.3zM6.4 6.4h2.3v2.3h-2.3zM6.4 9.6h2.3v2.3h-2.3zM6.4 12.8h2.3v2.3h-2.3zM6.4 16.0h2.3v2.3h-2.3zM3.2 19.2h2.3v2.3h-2.3zM6.4 19.2h2.3v2.3h-2.3zM9.6 19.2h2.3v2.3h-2.3zM19.2 0.0h2.3v2.3h-2.3zM22.4 0.0h2.3v2.3h-2.3zM25.6 0.0h2.3v2.3h-2.3zM28.8 0.0h2.3v2.3h-2.3zM19.2 3.2h2.3v2.3h-2.3zM32.0 3.2h2.3v2.3h-2.3zM19.2 6.4h2.3v2.3h-2.3zM32.0 6.4h2.3v2.3h-2.3zM19.2 9.6h2.3v2.3h-2.3zM32.0 9.6h2.3v2.3h-2.3zM19.2 12.8h2.3v2.3h-2.3zM32.0 12.8h2.3v2.3h-2.3zM19.2 16.0h2.3v2.3h-2.3zM32.0 16.0h2.3v2.3h-2.3zM19.2 19.2h2.3v2.3h-2.3zM22.4 19.2h2.3v2.3h-2.3zM25.6 19.2h2.3v2.3h-2.3zM28.8 19.2h2.3v2.3h-2.3zM38.4 0.0h2.3v2.3h-2.3zM38.4 3.2h2.3v2.3h-2.3zM38.4 6.4h2.3v2.3h-2.3zM38.4 9.6h2.3v2.3h-2.3zM38.4 12.8h2.3v2.3h-2.3zM38.4 16.0h2.3v2.3h-2.3zM38.4 19.2h2.3v2.3h-2.3zM41.6 19.2h2.3v2.3h-2.3zM44.8 19.2h2.3v2.3h-2.3zM48.0 19.2h2.3v2.3h-2.3zM51.2 19.2h2.3v2.3h-2.3zM57.6 0.0h2.3v2.3h-2.3zM60.8 0.0h2.3v2.3h-2.3zM64.0 0.0h2.3v2.3h-2.3zM67.2 0.0h2.3v2.3h-2.3zM70.4 0.0h2.3v2.3h-2.3zM57.6 3.2h2.3v2.3h-2.3zM57.6 6.4h2.3v2.3h-2.3zM57.6 9.6h2.3v2.3h-2.3zM60.8 9.6h2.3v2.3h-2.3zM64.0 9.6h2.3v2.3h-2.3zM67.2 9.6h2.3v2.3h-2.3zM57.6 12.8h2.3v2.3h-2.3zM57.6 16.0h2.3v2.3h-2.3zM57.6 19.2h2.3v2.3h-2.3zM60.8 19.2h2.3v2.3h-2.3zM64.0 19.2h2.3v2.3h-2.3zM67.2 19.2h2.3v2.3h-2.3zM70.4 19.2h2.3v2.3h-2.3z" fill="#6e8c3a" transform="translate(95.2 87)" filter="url(#glow)"/><ellipse cx="132.0" cy="340" rx="70" ry="9" fill="#000" opacity=".8"/><path d="M34 346H230" stroke="#1d2a1c" stroke-width="2"/><g transform="translate(132.0 338)"><g><g><path d="M-20.0 -2.0L-13.0 -5.0L-27.0 -8.4L-13.0 -11.8L-27.0 -15.2L-13.0 -18.6L-27.0 -22.0L-13.0 -25.4L-20.0 -30.0M20.0 -2.0L27.0 -5.0L13.0 -8.4L27.0 -11.8L13.0 -15.2L27.0 -18.6L13.0 -22.0L27.0 -25.4L20.0 -30.0" stroke="#8a8f86" stroke-width="3" fill="none"/></g><ellipse cx="-20" cy="0" rx="14" ry="5" fill="#34471d" stroke="#6e8c3a"/><ellipse cx="20" cy="0" rx="14" ry="5" fill="#34471d" stroke="#6e8c3a"/><g><g><path d="M-44 -60L-64 -38" stroke="#6e8c3a" stroke-width="8" stroke-linecap="round"/><path d="M-44 -60L-64 -38" stroke="#7c3a1a" stroke-width="2" stroke-dasharray="2 5"/><circle cx="-44" cy="-60" r="7" fill="#6e8c3a" stroke="#34471d" stroke-width="2"/><circle cx="-66.0" cy="-26.0" r="4.5" fill="#6e8c3a" stroke="#34471d"/><circle cx="-73.0" cy="-32.0" r="4.5" fill="#6e8c3a" stroke="#34471d"/><circle cx="-58.0" cy="-25.0" r="4.5" fill="#6e8c3a" stroke="#34471d"/><animateTransform attributeName="transform" type="rotate" values="0 -44 -60;-6 -44 -60;0 -44 -60" dur="3.6s" begin="0s" repeatCount="indefinite" additive="sum"/></g><g><path d="M44 -60L64 -38" stroke="#6e8c3a" stroke-width="8" stroke-linecap="round"/><path d="M44 -60L64 -38" stroke="#7c3a1a" stroke-width="2" stroke-dasharray="2 5"/><circle cx="44" cy="-60" r="7" fill="#6e8c3a" stroke="#34471d" stroke-width="2"/><circle cx="66.0" cy="-26.0" r="4.5" fill="#6e8c3a" stroke="#34471d"/><circle cx="73.0" cy="-32.0" r="4.5" fill="#6e8c3a" stroke="#34471d"/><circle cx="58.0" cy="-25.0" r="4.5" fill="#6e8c3a" stroke="#34471d"/><animateTransform attributeName="transform" type="rotate" values="0 44 -60;6 44 -60;0 44 -60" dur="3.6s" begin="0s" repeatCount="indefinite" additive="sum"/></g><g><path d="M-10 -108L-26 -124" stroke="#8a8f86" stroke-width="4"/><circle cx="-30" cy="-136" r="19" fill="#34471d" stroke="#6e8c3a" stroke-width="4"/><circle cx="-30" cy="-136" r="14" fill="url(#eyeR)" class="eye-IDLE"/><circle cx="-30" cy="-136" r="9" fill="none" stroke="#ffb199" stroke-width=".8" opacity=".6"/><circle cx="-30" cy="-136" r="4.5" fill="none" stroke="#ffb199" stroke-width=".8" opacity=".6"/><circle cx="-36" cy="-141" r="2.4" fill="#fff" opacity=".8"/><path d="M10 -108L26 -124" stroke="#8a8f86" stroke-width="4"/><circle cx="30" cy="-136" r="19" fill="#34471d" stroke="#6e8c3a" stroke-width="4"/><circle cx="30" cy="-136" r="14" fill="url(#eyeR)" class="eye-IDLE"/><circle cx="30" cy="-136" r="9" fill="none" stroke="#ffb199" stroke-width=".8" opacity=".6"/><circle cx="30" cy="-136" r="4.5" fill="none" stroke="#ffb199" stroke-width=".8" opacity=".6"/><circle cx="24" cy="-141" r="2.4" fill="#fff" opacity=".8"/><path d="M-46 -32C-46 -86 -30 -112 0 -112C30 -112 46 -86 46 -32Z" fill="#6e8c3a" stroke="#34471d" stroke-width="2"/><path d="M20 -108C36 -96 44 -70 46 -32H30C30 -70 26 -96 12 -110Z" fill="#3b8fa3" opacity=".45"/><path d="M-26 -34C-26 -72 -16 -90 0 -90C16 -90 26 -72 26 -34Z" fill="#34471d" opacity=".55"/><path d="M-26 -34C-26 -72 -16 -90 0 -90C16 -90 26 -72 26 -34Z" fill="none" stroke="#9dbb52" stroke-width="2" opacity=".6"/><path d="M-40 -58h8v6h-8zM28 -84l6 6" stroke="#7c3a1a" stroke-width="2" opacity=".8"/><circle cx="-14" cy="-60" r="2" fill="#9dbb52"/><circle cx="14" cy="-60" r="2" fill="#9dbb52"/><circle cx="-14" cy="-44" r="2" fill="#9dbb52"/><circle cx="14" cy="-44" r="2" fill="#9dbb52"/><circle cx="-36" cy="-70" r="2" fill="#9dbb52"/><circle cx="36" cy="-70" r="2" fill="#9dbb52"/><circle cx="-30" cy="-92" r="2" fill="#9dbb52"/><circle cx="30" cy="-92" r="2" fill="#9dbb52"/><rect x="-48" y="-36" width="96" height="10" fill="#2a2e22" stroke="#34471d"/><rect x="-40.0" y="-33" width="7" height="5" class="led-IDLE" style="animation-delay:0.00s"/><rect x="-29.5" y="-33" width="7" height="5" class="led-IDLE" style="animation-delay:0.09s"/><rect x="-19.0" y="-33" width="7" height="5" class="led-IDLE" style="animation-delay:0.18s"/><rect x="-8.5" y="-33" width="7" height="5" class="led-IDLE" style="animation-delay:0.27s"/><rect x="2.0" y="-33" width="7" height="5" class="led-IDLE" style="animation-delay:0.36s"/><rect x="12.5" y="-33" width="7" height="5" class="led-IDLE" style="animation-delay:0.45s"/><rect x="23.0" y="-33" width="7" height="5" class="led-IDLE" style="animation-delay:0.54s"/><rect x="33.5" y="-33" width="7" height="5" class="led-IDLE" style="animation-delay:0.63s"/></g><animateTransform attributeName="transform" type="translate" values="0 0;0 -2;0 0" dur="3.6s" repeatCount="indefinite" additive="sum"/></g></g></g><text x="36" y="376" font-size="10" fill="#6c7a66" text-anchor="start" font-weight="400" letter-spacing="1.5" >EYES</text><text x="228" y="376" font-size="11" fill="#6e8c3a" text-anchor="end" font-weight="700" letter-spacing="0" >slow breathe</text><text x="36" y="396" font-size="10" fill="#6c7a66" text-anchor="start" font-weight="400" letter-spacing="1.5" >LEDS</text><text x="228" y="396" font-size="11" fill="#6e8c3a" text-anchor="end" font-weight="700" letter-spacing="0" >dim wave</text><text x="36" y="416" font-size="10" fill="#6c7a66" text-anchor="start" font-weight="400" letter-spacing="1.5" >SERVO</text><text x="228" y="416" font-size="11" fill="#6e8c3a" text-anchor="end" font-weight="700" letter-spacing="0" >micro sway</text><path d="M268 20H468L480 32V438L468 450H268L256 438V32Z" fill="#0a0e0b" stroke="#34471d" stroke-width="2" /><circle cx="264" cy="28" r="2.4" fill="#34471d"/><circle cx="263.3" cy="27.3" r="1.1" fill="#9dbb52" opacity=".55"/><circle cx="472" cy="28" r="2.4" fill="#34471d"/><circle cx="471.3" cy="27.3" r="1.1" fill="#9dbb52" opacity=".55"/><circle cx="264" cy="442" r="2.4" fill="#34471d"/><circle cx="263.3" cy="441.3" r="1.1" fill="#9dbb52" opacity=".55"/><circle cx="472" cy="442" r="2.4" fill="#34471d"/><circle cx="471.3" cy="441.3" r="1.1" fill="#9dbb52" opacity=".55"/><text x="272" y="50" font-size="10" fill="#6c7a66" text-anchor="start" font-weight="400" letter-spacing="2" >EVENT</text><text x="272" y="68" font-size="13" fill="#c9d6bf" text-anchor="start" font-weight="700" letter-spacing="0" >fee.collected</text><rect x="268" y="80" width="200" height="36" fill="#000"/><rect x="268" y="80" width="200" height="36" fill="url(#unlit)"/><path d="M0.0 0.0h2.3v2.3h-2.3zM3.2 0.0h2.3v2.3h-2.3zM6.4 0.0h2.3v2.3h-2.3zM9.6 0.0h2.3v2.3h-2.3zM12.8 0.0h2.3v2.3h-2.3zM0.0 3.2h2.3v2.3h-2.3zM0.0 6.4h2.3v2.3h-2.3zM0.0 9.6h2.3v2.3h-2.3zM3.2 9.6h2.3v2.3h-2.3zM6.4 9.6h2.3v2.3h-2.3zM9.6 9.6h2.3v2.3h-2.3zM0.0 12.8h2.3v2.3h-2.3zM0.0 16.0h2.3v2.3h-2.3zM0.0 19.2h2.3v2.3h-2.3zM19.2 0.0h2.3v2.3h-2.3zM22.4 0.0h2.3v2.3h-2.3zM25.6 0.0h2.3v2.3h-2.3zM28.8 0.0h2.3v2.3h-2.3zM32.0 0.0h2.3v2.3h-2.3zM19.2 3.2h2.3v2.3h-2.3zM19.2 6.4h2.3v2.3h-2.3zM19.2 9.6h2.3v2.3h-2.3zM22.4 9.6h2.3v2.3h-2.3zM25.6 9.6h2.3v2.3h-2.3zM28.8 9.6h2.3v2.3h-2.3zM19.2 12.8h2.3v2.3h-2.3zM19.2 16.0h2.3v2.3h-2.3zM19.2 19.2h2.3v2.3h-2.3zM22.4 19.2h2.3v2.3h-2.3zM25.6 19.2h2.3v2.3h-2.3zM28.8 19.2h2.3v2.3h-2.3zM32.0 19.2h2.3v2.3h-2.3zM38.4 0.0h2.3v2.3h-2.3zM41.6 0.0h2.3v2.3h-2.3zM44.8 0.0h2.3v2.3h-2.3zM48.0 0.0h2.3v2.3h-2.3zM51.2 0.0h2.3v2.3h-2.3zM38.4 3.2h2.3v2.3h-2.3zM38.4 6.4h2.3v2.3h-2.3zM38.4 9.6h2.3v2.3h-2.3zM41.6 9.6h2.3v2.3h-2.3zM44.8 9.6h2.3v2.3h-2.3zM48.0 9.6h2.3v2.3h-2.3zM38.4 12.8h2.3v2.3h-2.3zM38.4 16.0h2.3v2.3h-2.3zM38.4 19.2h2.3v2.3h-2.3zM41.6 19.2h2.3v2.3h-2.3zM44.8 19.2h2.3v2.3h-2.3zM48.0 19.2h2.3v2.3h-2.3zM51.2 19.2h2.3v2.3h-2.3zM57.6 0.0h2.3v2.3h-2.3zM60.8 0.0h2.3v2.3h-2.3zM64.0 0.0h2.3v2.3h-2.3zM67.2 0.0h2.3v2.3h-2.3zM57.6 3.2h2.3v2.3h-2.3zM70.4 3.2h2.3v2.3h-2.3zM57.6 6.4h2.3v2.3h-2.3zM70.4 6.4h2.3v2.3h-2.3zM57.6 9.6h2.3v2.3h-2.3zM70.4 9.6h2.3v2.3h-2.3zM57.6 12.8h2.3v2.3h-2.3zM70.4 12.8h2.3v2.3h-2.3zM57.6 16.0h2.3v2.3h-2.3zM70.4 16.0h2.3v2.3h-2.3zM57.6 19.2h2.3v2.3h-2.3zM60.8 19.2h2.3v2.3h-2.3zM64.0 19.2h2.3v2.3h-2.3zM67.2 19.2h2.3v2.3h-2.3z" fill="#ffae1a" transform="translate(331.2 87)" filter="url(#glow)"/><ellipse cx="368.0" cy="340" rx="70" ry="9" fill="#000" opacity=".8"/><path d="M270 346H466" stroke="#1d2a1c" stroke-width="2"/><g transform="translate(368.0 338)"><g><g><path d="M-20.0 -2.0L-13.0 -5.0L-27.0 -8.4L-13.0 -11.8L-27.0 -15.2L-13.0 -18.6L-27.0 -22.0L-13.0 -25.4L-20.0 -30.0M20.0 -2.0L27.0 -5.0L13.0 -8.4L27.0 -11.8L13.0 -15.2L27.0 -18.6L13.0 -22.0L27.0 -25.4L20.0 -30.0" stroke="#8a8f86" stroke-width="3" fill="none"/></g><ellipse cx="-20" cy="0" rx="14" ry="5" fill="#34471d" stroke="#6e8c3a"/><ellipse cx="20" cy="0" rx="14" ry="5" fill="#34471d" stroke="#6e8c3a"/><g><g><path d="M-44 -60L-64 -38" stroke="#6e8c3a" stroke-width="8" stroke-linecap="round"/><path d="M-44 -60L-64 -38" stroke="#7c3a1a" stroke-width="2" stroke-dasharray="2 5"/><circle cx="-44" cy="-60" r="7" fill="#6e8c3a" stroke="#34471d" stroke-width="2"/><circle cx="-66.0" cy="-26.0" r="4.5" fill="#6e8c3a" stroke="#34471d"/><circle cx="-73.0" cy="-32.0" r="4.5" fill="#6e8c3a" stroke="#34471d"/><circle cx="-58.0" cy="-25.0" r="4.5" fill="#6e8c3a" stroke="#34471d"/><animateTransform attributeName="transform" type="rotate" values="0 -44 -60;-38 -44 -60;-30 -44 -60;0 -44 -60" keyTimes="0;.35;.6;1" dur="1.1s" begin="0s" repeatCount="indefinite" additive="sum"/></g><g><path d="M44 -60L64 -38" stroke="#6e8c3a" stroke-width="8" stroke-linecap="round"/><path d="M44 -60L64 -38" stroke="#7c3a1a" stroke-width="2" stroke-dasharray="2 5"/><circle cx="44" cy="-60" r="7" fill="#6e8c3a" stroke="#34471d" stroke-width="2"/><circle cx="66.0" cy="-26.0" r="4.5" fill="#6e8c3a" stroke="#34471d"/><circle cx="73.0" cy="-32.0" r="4.5" fill="#6e8c3a" stroke="#34471d"/><circle cx="58.0" cy="-25.0" r="4.5" fill="#6e8c3a" stroke="#34471d"/><animateTransform attributeName="transform" type="rotate" values="0 44 -60;38 44 -60;30 44 -60;0 44 -60" keyTimes="0;.35;.6;1" dur="1.1s" begin="0s" repeatCount="indefinite" additive="sum"/></g><g><path d="M-10 -108L-26 -124" stroke="#8a8f86" stroke-width="4"/><circle cx="-30" cy="-136" r="19" fill="#34471d" stroke="#6e8c3a" stroke-width="4"/><circle cx="-30" cy="-136" r="14" fill="url(#eyeR)" class="eye-FEED"/><circle cx="-30" cy="-136" r="9" fill="none" stroke="#ffb199" stroke-width=".8" opacity=".6"/><circle cx="-30" cy="-136" r="4.5" fill="none" stroke="#ffb199" stroke-width=".8" opacity=".6"/><circle cx="-36" cy="-141" r="2.4" fill="#fff" opacity=".8"/><path d="M10 -108L26 -124" stroke="#8a8f86" stroke-width="4"/><circle cx="30" cy="-136" r="19" fill="#34471d" stroke="#6e8c3a" stroke-width="4"/><circle cx="30" cy="-136" r="14" fill="url(#eyeR)" class="eye-FEED"/><circle cx="30" cy="-136" r="9" fill="none" stroke="#ffb199" stroke-width=".8" opacity=".6"/><circle cx="30" cy="-136" r="4.5" fill="none" stroke="#ffb199" stroke-width=".8" opacity=".6"/><circle cx="24" cy="-141" r="2.4" fill="#fff" opacity=".8"/><path d="M-46 -32C-46 -86 -30 -112 0 -112C30 -112 46 -86 46 -32Z" fill="#6e8c3a" stroke="#34471d" stroke-width="2"/><path d="M20 -108C36 -96 44 -70 46 -32H30C30 -70 26 -96 12 -110Z" fill="#3b8fa3" opacity=".45"/><path d="M-26 -34C-26 -72 -16 -90 0 -90C16 -90 26 -72 26 -34Z" fill="#34471d" opacity=".55"/><path d="M-26 -34C-26 -72 -16 -90 0 -90C16 -90 26 -72 26 -34Z" fill="none" stroke="#9dbb52" stroke-width="2" opacity=".6"/><path d="M-40 -58h8v6h-8zM28 -84l6 6" stroke="#7c3a1a" stroke-width="2" opacity=".8"/><circle cx="-14" cy="-60" r="2" fill="#9dbb52"/><circle cx="14" cy="-60" r="2" fill="#9dbb52"/><circle cx="-14" cy="-44" r="2" fill="#9dbb52"/><circle cx="14" cy="-44" r="2" fill="#9dbb52"/><circle cx="-36" cy="-70" r="2" fill="#9dbb52"/><circle cx="36" cy="-70" r="2" fill="#9dbb52"/><circle cx="-30" cy="-92" r="2" fill="#9dbb52"/><circle cx="30" cy="-92" r="2" fill="#9dbb52"/><rect x="-48" y="-36" width="96" height="10" fill="#2a2e22" stroke="#34471d"/><rect x="-40.0" y="-33" width="7" height="5" class="led-FEED" style="animation-delay:0.00s"/><rect x="-29.5" y="-33" width="7" height="5" class="led-FEED" style="animation-delay:0.09s"/><rect x="-19.0" y="-33" width="7" height="5" class="led-FEED" style="animation-delay:0.18s"/><rect x="-8.5" y="-33" width="7" height="5" class="led-FEED" style="animation-delay:0.27s"/><rect x="2.0" y="-33" width="7" height="5" class="led-FEED" style="animation-delay:0.36s"/><rect x="12.5" y="-33" width="7" height="5" class="led-FEED" style="animation-delay:0.45s"/><rect x="23.0" y="-33" width="7" height="5" class="led-FEED" style="animation-delay:0.54s"/><rect x="33.5" y="-33" width="7" height="5" class="led-FEED" style="animation-delay:0.63s"/></g><animateTransform attributeName="transform" type="translate" values="0 0;0 2;0 0" dur="1.1s" repeatCount="indefinite" additive="sum"/></g></g></g><text x="272" y="376" font-size="10" fill="#6c7a66" text-anchor="start" font-weight="400" letter-spacing="1.5" >EYES</text><text x="464" y="376" font-size="11" fill="#ffae1a" text-anchor="end" font-weight="700" letter-spacing="0" >pulse</text><text x="272" y="396" font-size="10" fill="#6c7a66" text-anchor="start" font-weight="400" letter-spacing="1.5" >LEDS</text><text x="464" y="396" font-size="11" fill="#ffae1a" text-anchor="end" font-weight="700" letter-spacing="0" >amber chase</text><text x="272" y="416" font-size="10" fill="#6c7a66" text-anchor="start" font-weight="400" letter-spacing="1.5" >SERVO</text><text x="464" y="416" font-size="11" fill="#ffae1a" text-anchor="end" font-weight="700" letter-spacing="0" >arms grab</text><path d="M504 20H704L716 32V438L704 450H504L492 438V32Z" fill="#0a0e0b" stroke="#34471d" stroke-width="2" /><circle cx="500" cy="28" r="2.4" fill="#34471d"/><circle cx="499.3" cy="27.3" r="1.1" fill="#9dbb52" opacity=".55"/><circle cx="708" cy="28" r="2.4" fill="#34471d"/><circle cx="707.3" cy="27.3" r="1.1" fill="#9dbb52" opacity=".55"/><circle cx="500" cy="442" r="2.4" fill="#34471d"/><circle cx="499.3" cy="441.3" r="1.1" fill="#9dbb52" opacity=".55"/><circle cx="708" cy="442" r="2.4" fill="#34471d"/><circle cx="707.3" cy="441.3" r="1.1" fill="#9dbb52" opacity=".55"/><text x="508" y="50" font-size="10" fill="#6c7a66" text-anchor="start" font-weight="400" letter-spacing="2" >EVENT</text><text x="508" y="68" font-size="13" fill="#c9d6bf" text-anchor="start" font-weight="700" letter-spacing="0" >swap.executed</text><rect x="504" y="80" width="200" height="36" fill="#000"/><rect x="504" y="80" width="200" height="36" fill="url(#unlit)"/><path d="M3.2 0.0h2.3v2.3h-2.3zM6.4 0.0h2.3v2.3h-2.3zM9.6 0.0h2.3v2.3h-2.3zM0.0 3.2h2.3v2.3h-2.3zM12.8 3.2h2.3v2.3h-2.3zM0.0 6.4h2.3v2.3h-2.3zM0.0 9.6h2.3v2.3h-2.3zM0.0 12.8h2.3v2.3h-2.3zM0.0 16.0h2.3v2.3h-2.3zM12.8 16.0h2.3v2.3h-2.3zM3.2 19.2h2.3v2.3h-2.3zM6.4 19.2h2.3v2.3h-2.3zM9.6 19.2h2.3v2.3h-2.3zM19.2 0.0h2.3v2.3h-2.3zM22.4 0.0h2.3v2.3h-2.3zM25.6 0.0h2.3v2.3h-2.3zM28.8 0.0h2.3v2.3h-2.3zM19.2 3.2h2.3v2.3h-2.3zM32.0 3.2h2.3v2.3h-2.3zM19.2 6.4h2.3v2.3h-2.3zM32.0 6.4h2.3v2.3h-2.3zM19.2 9.6h2.3v2.3h-2.3zM22.4 9.6h2.3v2.3h-2.3zM25.6 9.6h2.3v2.3h-2.3zM28.8 9.6h2.3v2.3h-2.3zM19.2 12.8h2.3v2.3h-2.3zM25.6 12.8h2.3v2.3h-2.3zM19.2 16.0h2.3v2.3h-2.3zM28.8 16.0h2.3v2.3h-2.3zM19.2 19.2h2.3v2.3h-2.3zM32.0 19.2h2.3v2.3h-2.3zM38.4 0.0h2.3v2.3h-2.3zM51.2 0.0h2.3v2.3h-2.3zM38.4 3.2h2.3v2.3h-2.3zM51.2 3.2h2.3v2.3h-2.3zM38.4 6.4h2.3v2.3h-2.3zM51.2 6.4h2.3v2.3h-2.3zM38.4 9.6h2.3v2.3h-2.3zM51.2 9.6h2.3v2.3h-2.3zM38.4 12.8h2.3v2.3h-2.3zM51.2 12.8h2.3v2.3h-2.3zM38.4 16.0h2.3v2.3h-2.3zM51.2 16.0h2.3v2.3h-2.3zM41.6 19.2h2.3v2.3h-2.3zM44.8 19.2h2.3v2.3h-2.3zM48.0 19.2h2.3v2.3h-2.3zM57.6 0.0h2.3v2.3h-2.3zM70.4 0.0h2.3v2.3h-2.3zM57.6 3.2h2.3v2.3h-2.3zM70.4 3.2h2.3v2.3h-2.3zM57.6 6.4h2.3v2.3h-2.3zM60.8 6.4h2.3v2.3h-2.3zM70.4 6.4h2.3v2.3h-2.3zM57.6 9.6h2.3v2.3h-2.3zM64.0 9.6h2.3v2.3h-2.3zM70.4 9.6h2.3v2.3h-2.3zM57.6 12.8h2.3v2.3h-2.3zM67.2 12.8h2.3v2.3h-2.3zM70.4 12.8h2.3v2.3h-2.3zM57.6 16.0h2.3v2.3h-2.3zM70.4 16.0h2.3v2.3h-2.3zM57.6 19.2h2.3v2.3h-2.3zM70.4 19.2h2.3v2.3h-2.3zM80.0 0.0h2.3v2.3h-2.3zM83.2 0.0h2.3v2.3h-2.3zM86.4 0.0h2.3v2.3h-2.3zM76.8 3.2h2.3v2.3h-2.3zM89.6 3.2h2.3v2.3h-2.3zM76.8 6.4h2.3v2.3h-2.3zM76.8 9.6h2.3v2.3h-2.3zM76.8 12.8h2.3v2.3h-2.3zM76.8 16.0h2.3v2.3h-2.3zM89.6 16.0h2.3v2.3h-2.3zM80.0 19.2h2.3v2.3h-2.3zM83.2 19.2h2.3v2.3h-2.3zM86.4 19.2h2.3v2.3h-2.3zM96.0 0.0h2.3v2.3h-2.3zM108.8 0.0h2.3v2.3h-2.3zM96.0 3.2h2.3v2.3h-2.3zM108.8 3.2h2.3v2.3h-2.3zM96.0 6.4h2.3v2.3h-2.3zM108.8 6.4h2.3v2.3h-2.3zM96.0 9.6h2.3v2.3h-2.3zM99.2 9.6h2.3v2.3h-2.3zM102.4 9.6h2.3v2.3h-2.3zM105.6 9.6h2.3v2.3h-2.3zM108.8 9.6h2.3v2.3h-2.3zM96.0 12.8h2.3v2.3h-2.3zM108.8 12.8h2.3v2.3h-2.3zM96.0 16.0h2.3v2.3h-2.3zM108.8 16.0h2.3v2.3h-2.3zM96.0 19.2h2.3v2.3h-2.3zM108.8 19.2h2.3v2.3h-2.3z" fill="#14f195" transform="translate(548.0 87)" filter="url(#glow)"/><ellipse cx="604.0" cy="340" rx="70" ry="9" fill="#000" opacity=".8"/><path d="M506 346H702" stroke="#1d2a1c" stroke-width="2"/><g transform="translate(604.0 338)"><g><g><path d="M-20.0 -2.0L-13.0 -5.0L-27.0 -8.4L-13.0 -11.8L-27.0 -15.2L-13.0 -18.6L-27.0 -22.0L-13.0 -25.4L-20.0 -30.0M20.0 -2.0L27.0 -5.0L13.0 -8.4L27.0 -11.8L13.0 -15.2L27.0 -18.6L13.0 -22.0L27.0 -25.4L20.0 -30.0" stroke="#8a8f86" stroke-width="3" fill="none"/></g><ellipse cx="-20" cy="0" rx="14" ry="5" fill="#34471d" stroke="#6e8c3a"/><ellipse cx="20" cy="0" rx="14" ry="5" fill="#34471d" stroke="#6e8c3a"/><g><g><path d="M-44 -60L-64 -38" stroke="#6e8c3a" stroke-width="8" stroke-linecap="round"/><path d="M-44 -60L-64 -38" stroke="#7c3a1a" stroke-width="2" stroke-dasharray="2 5"/><circle cx="-44" cy="-60" r="7" fill="#6e8c3a" stroke="#34471d" stroke-width="2"/><circle cx="-66.0" cy="-26.0" r="4.5" fill="#6e8c3a" stroke="#34471d"/><circle cx="-73.0" cy="-32.0" r="4.5" fill="#6e8c3a" stroke="#34471d"/><circle cx="-58.0" cy="-25.0" r="4.5" fill="#6e8c3a" stroke="#34471d"/><animateTransform attributeName="transform" type="rotate" values="0 -44 -60;10 -44 -60;-10 -44 -60;0 -44 -60;0 -44 -60" keyTimes="0;.15;.3;.45;1" dur="0.9s" begin="0s" repeatCount="indefinite" additive="sum"/></g><g><path d="M44 -60L64 -38" stroke="#6e8c3a" stroke-width="8" stroke-linecap="round"/><path d="M44 -60L64 -38" stroke="#7c3a1a" stroke-width="2" stroke-dasharray="2 5"/><circle cx="44" cy="-60" r="7" fill="#6e8c3a" stroke="#34471d" stroke-width="2"/><circle cx="66.0" cy="-26.0" r="4.5" fill="#6e8c3a" stroke="#34471d"/><circle cx="73.0" cy="-32.0" r="4.5" fill="#6e8c3a" stroke="#34471d"/><circle cx="58.0" cy="-25.0" r="4.5" fill="#6e8c3a" stroke="#34471d"/><animateTransform attributeName="transform" type="rotate" values="0 44 -60;-10 44 -60;10 44 -60;0 44 -60;0 44 -60" keyTimes="0;.15;.3;.45;1" dur="0.9s" begin="0s" repeatCount="indefinite" additive="sum"/></g><g><path d="M-10 -108L-26 -124" stroke="#8a8f86" stroke-width="4"/><circle cx="-30" cy="-136" r="19" fill="#34471d" stroke="#6e8c3a" stroke-width="4"/><circle cx="-30" cy="-136" r="14" fill="url(#eyeR)" class="eye-CRUNCH"/><circle cx="-30" cy="-136" r="9" fill="none" stroke="#ffb199" stroke-width=".8" opacity=".6"/><circle cx="-30" cy="-136" r="4.5" fill="none" stroke="#ffb199" stroke-width=".8" opacity=".6"/><circle cx="-36" cy="-141" r="2.4" fill="#fff" opacity=".8"/><path d="M10 -108L26 -124" stroke="#8a8f86" stroke-width="4"/><circle cx="30" cy="-136" r="19" fill="#34471d" stroke="#6e8c3a" stroke-width="4"/><circle cx="30" cy="-136" r="14" fill="url(#eyeR)" class="eye-CRUNCH"/><circle cx="30" cy="-136" r="9" fill="none" stroke="#ffb199" stroke-width=".8" opacity=".6"/><circle cx="30" cy="-136" r="4.5" fill="none" stroke="#ffb199" stroke-width=".8" opacity=".6"/><circle cx="24" cy="-141" r="2.4" fill="#fff" opacity=".8"/><path d="M-46 -32C-46 -86 -30 -112 0 -112C30 -112 46 -86 46 -32Z" fill="#6e8c3a" stroke="#34471d" stroke-width="2"/><path d="M20 -108C36 -96 44 -70 46 -32H30C30 -70 26 -96 12 -110Z" fill="#3b8fa3" opacity=".45"/><path d="M-26 -34C-26 -72 -16 -90 0 -90C16 -90 26 -72 26 -34Z" fill="#34471d" opacity=".55"/><path d="M-26 -34C-26 -72 -16 -90 0 -90C16 -90 26 -72 26 -34Z" fill="none" stroke="#9dbb52" stroke-width="2" opacity=".6"/><path d="M-40 -58h8v6h-8zM28 -84l6 6" stroke="#7c3a1a" stroke-width="2" opacity=".8"/><circle cx="-14" cy="-60" r="2" fill="#9dbb52"/><circle cx="14" cy="-60" r="2" fill="#9dbb52"/><circle cx="-14" cy="-44" r="2" fill="#9dbb52"/><circle cx="14" cy="-44" r="2" fill="#9dbb52"/><circle cx="-36" cy="-70" r="2" fill="#9dbb52"/><circle cx="36" cy="-70" r="2" fill="#9dbb52"/><circle cx="-30" cy="-92" r="2" fill="#9dbb52"/><circle cx="30" cy="-92" r="2" fill="#9dbb52"/><rect x="-48" y="-36" width="96" height="10" fill="#2a2e22" stroke="#34471d"/><rect x="-40.0" y="-33" width="7" height="5" class="led-CRUNCH" style="animation-delay:0.00s"/><rect x="-29.5" y="-33" width="7" height="5" class="led-CRUNCH" style="animation-delay:0.09s"/><rect x="-19.0" y="-33" width="7" height="5" class="led-CRUNCH" style="animation-delay:0.18s"/><rect x="-8.5" y="-33" width="7" height="5" class="led-CRUNCH" style="animation-delay:0.27s"/><rect x="2.0" y="-33" width="7" height="5" class="led-CRUNCH" style="animation-delay:0.36s"/><rect x="12.5" y="-33" width="7" height="5" class="led-CRUNCH" style="animation-delay:0.45s"/><rect x="23.0" y="-33" width="7" height="5" class="led-CRUNCH" style="animation-delay:0.54s"/><rect x="33.5" y="-33" width="7" height="5" class="led-CRUNCH" style="animation-delay:0.63s"/></g><animateTransform attributeName="transform" type="translate" values="0 0;-3 0;3 0;-2 0;2 0;0 0;0 0" keyTimes="0;.1;.2;.3;.4;.5;1" dur="0.9s" repeatCount="indefinite" additive="sum"/></g></g></g><text x="508" y="376" font-size="10" fill="#6c7a66" text-anchor="start" font-weight="400" letter-spacing="1.5" >EYES</text><text x="700" y="376" font-size="11" fill="#14f195" text-anchor="end" font-weight="700" letter-spacing="0" >double flash</text><text x="508" y="396" font-size="10" fill="#6c7a66" text-anchor="start" font-weight="400" letter-spacing="1.5" >LEDS</text><text x="700" y="396" font-size="11" fill="#14f195" text-anchor="end" font-weight="700" letter-spacing="0" >flicker</text><text x="508" y="416" font-size="10" fill="#6c7a66" text-anchor="start" font-weight="400" letter-spacing="1.5" >SERVO</text><text x="700" y="416" font-size="11" fill="#14f195" text-anchor="end" font-weight="700" letter-spacing="0" >body shake</text><path d="M740 20H940L952 32V438L940 450H740L728 438V32Z" fill="#0a0e0b" stroke="#34471d" stroke-width="2" /><circle cx="736" cy="28" r="2.4" fill="#34471d"/><circle cx="735.3" cy="27.3" r="1.1" fill="#9dbb52" opacity=".55"/><circle cx="944" cy="28" r="2.4" fill="#34471d"/><circle cx="943.3" cy="27.3" r="1.1" fill="#9dbb52" opacity=".55"/><circle cx="736" cy="442" r="2.4" fill="#34471d"/><circle cx="735.3" cy="441.3" r="1.1" fill="#9dbb52" opacity=".55"/><circle cx="944" cy="442" r="2.4" fill="#34471d"/><circle cx="943.3" cy="441.3" r="1.1" fill="#9dbb52" opacity=".55"/><text x="744" y="50" font-size="10" fill="#6c7a66" text-anchor="start" font-weight="400" letter-spacing="2" >EVENT</text><text x="744" y="68" font-size="13" fill="#c9d6bf" text-anchor="start" font-weight="700" letter-spacing="0" >distribution.done</text><rect x="740" y="80" width="200" height="36" fill="#000"/><rect x="740" y="80" width="200" height="36" fill="url(#unlit)"/><path d="M0.0 0.0h2.3v2.3h-2.3zM3.2 0.0h2.3v2.3h-2.3zM6.4 0.0h2.3v2.3h-2.3zM9.6 0.0h2.3v2.3h-2.3zM0.0 3.2h2.3v2.3h-2.3zM12.8 3.2h2.3v2.3h-2.3zM0.0 6.4h2.3v2.3h-2.3zM12.8 6.4h2.3v2.3h-2.3zM0.0 9.6h2.3v2.3h-2.3zM3.2 9.6h2.3v2.3h-2.3zM6.4 9.6h2.3v2.3h-2.3zM9.6 9.6h2.3v2.3h-2.3zM0.0 12.8h2.3v2.3h-2.3zM0.0 16.0h2.3v2.3h-2.3zM0.0 19.2h2.3v2.3h-2.3zM22.4 0.0h2.3v2.3h-2.3zM25.6 0.0h2.3v2.3h-2.3zM28.8 0.0h2.3v2.3h-2.3zM19.2 3.2h2.3v2.3h-2.3zM32.0 3.2h2.3v2.3h-2.3zM19.2 6.4h2.3v2.3h-2.3zM32.0 6.4h2.3v2.3h-2.3zM19.2 9.6h2.3v2.3h-2.3zM22.4 9.6h2.3v2.3h-2.3zM25.6 9.6h2.3v2.3h-2.3zM28.8 9.6h2.3v2.3h-2.3zM32.0 9.6h2.3v2.3h-2.3zM19.2 12.8h2.3v2.3h-2.3zM32.0 12.8h2.3v2.3h-2.3zM19.2 16.0h2.3v2.3h-2.3zM32.0 16.0h2.3v2.3h-2.3zM19.2 19.2h2.3v2.3h-2.3zM32.0 19.2h2.3v2.3h-2.3zM38.4 0.0h2.3v2.3h-2.3zM51.2 0.0h2.3v2.3h-2.3zM38.4 3.2h2.3v2.3h-2.3zM51.2 3.2h2.3v2.3h-2.3zM41.6 6.4h2.3v2.3h-2.3zM48.0 6.4h2.3v2.3h-2.3zM44.8 9.6h2.3v2.3h-2.3zM44.8 12.8h2.3v2.3h-2.3zM44.8 16.0h2.3v2.3h-2.3zM44.8 19.2h2.3v2.3h-2.3zM60.8 0.0h2.3v2.3h-2.3zM64.0 0.0h2.3v2.3h-2.3zM67.2 0.0h2.3v2.3h-2.3zM57.6 3.2h2.3v2.3h-2.3zM70.4 3.2h2.3v2.3h-2.3zM57.6 6.4h2.3v2.3h-2.3zM70.4 6.4h2.3v2.3h-2.3zM57.6 9.6h2.3v2.3h-2.3zM70.4 9.6h2.3v2.3h-2.3zM57.6 12.8h2.3v2.3h-2.3zM70.4 12.8h2.3v2.3h-2.3zM57.6 16.0h2.3v2.3h-2.3zM70.4 16.0h2.3v2.3h-2.3zM60.8 19.2h2.3v2.3h-2.3zM64.0 19.2h2.3v2.3h-2.3zM67.2 19.2h2.3v2.3h-2.3zM76.8 0.0h2.3v2.3h-2.3zM89.6 0.0h2.3v2.3h-2.3zM76.8 3.2h2.3v2.3h-2.3zM89.6 3.2h2.3v2.3h-2.3zM76.8 6.4h2.3v2.3h-2.3zM89.6 6.4h2.3v2.3h-2.3zM76.8 9.6h2.3v2.3h-2.3zM89.6 9.6h2.3v2.3h-2.3zM76.8 12.8h2.3v2.3h-2.3zM89.6 12.8h2.3v2.3h-2.3zM76.8 16.0h2.3v2.3h-2.3zM89.6 16.0h2.3v2.3h-2.3zM80.0 19.2h2.3v2.3h-2.3zM83.2 19.2h2.3v2.3h-2.3zM86.4 19.2h2.3v2.3h-2.3zM96.0 0.0h2.3v2.3h-2.3zM99.2 0.0h2.3v2.3h-2.3zM102.4 0.0h2.3v2.3h-2.3zM105.6 0.0h2.3v2.3h-2.3zM108.8 0.0h2.3v2.3h-2.3zM102.4 3.2h2.3v2.3h-2.3zM102.4 6.4h2.3v2.3h-2.3zM102.4 9.6h2.3v2.3h-2.3zM102.4 12.8h2.3v2.3h-2.3zM102.4 16.0h2.3v2.3h-2.3zM102.4 19.2h2.3v2.3h-2.3z" fill="#b8ff4f" transform="translate(784.0 87)" filter="url(#glow)"/><ellipse cx="840.0" cy="340" rx="70" ry="9" fill="#000" opacity=".8"/><path d="M742 346H938" stroke="#1d2a1c" stroke-width="2"/><g transform="translate(840.0 338)"><g><g><path d="M-20.0 -2.0L-13.0 -5.0L-27.0 -8.4L-13.0 -11.8L-27.0 -15.2L-13.0 -18.6L-27.0 -22.0L-13.0 -25.4L-20.0 -30.0M20.0 -2.0L27.0 -5.0L13.0 -8.4L27.0 -11.8L13.0 -15.2L27.0 -18.6L13.0 -22.0L27.0 -25.4L20.0 -30.0" stroke="#8a8f86" stroke-width="3" fill="none"/><animateTransform attributeName="transform" type="scale" values="1 1;1 1.35;1 1;1 1" keyTimes="0;.3;.6;1" dur="1.3s" repeatCount="indefinite" additive="sum"/></g><ellipse cx="-20" cy="0" rx="14" ry="5" fill="#34471d" stroke="#6e8c3a"/><ellipse cx="20" cy="0" rx="14" ry="5" fill="#34471d" stroke="#6e8c3a"/><g><g><path d="M-44 -60L-64 -38" stroke="#6e8c3a" stroke-width="8" stroke-linecap="round"/><path d="M-44 -60L-64 -38" stroke="#7c3a1a" stroke-width="2" stroke-dasharray="2 5"/><circle cx="-44" cy="-60" r="7" fill="#6e8c3a" stroke="#34471d" stroke-width="2"/><circle cx="-66.0" cy="-26.0" r="4.5" fill="#6e8c3a" stroke="#34471d"/><circle cx="-73.0" cy="-32.0" r="4.5" fill="#6e8c3a" stroke="#34471d"/><circle cx="-58.0" cy="-25.0" r="4.5" fill="#6e8c3a" stroke="#34471d"/><animateTransform attributeName="transform" type="rotate" values="60 -44 -60;95 -44 -60;60 -44 -60" dur="0.5s" begin="0s" repeatCount="indefinite" additive="sum"/></g><g><path d="M44 -60L64 -38" stroke="#6e8c3a" stroke-width="8" stroke-linecap="round"/><path d="M44 -60L64 -38" stroke="#7c3a1a" stroke-width="2" stroke-dasharray="2 5"/><circle cx="44" cy="-60" r="7" fill="#6e8c3a" stroke="#34471d" stroke-width="2"/><circle cx="66.0" cy="-26.0" r="4.5" fill="#6e8c3a" stroke="#34471d"/><circle cx="73.0" cy="-32.0" r="4.5" fill="#6e8c3a" stroke="#34471d"/><circle cx="58.0" cy="-25.0" r="4.5" fill="#6e8c3a" stroke="#34471d"/><animateTransform attributeName="transform" type="rotate" values="-60 44 -60;-95 44 -60;-60 44 -60" dur="0.5s" begin="0s" repeatCount="indefinite" additive="sum"/></g><g><path d="M-10 -108L-26 -124" stroke="#8a8f86" stroke-width="4"/><circle cx="-30" cy="-136" r="19" fill="#34471d" stroke="#6e8c3a" stroke-width="4"/><circle cx="-30" cy="-136" r="14" fill="url(#eyeR)" class="eye-PAYOUT"/><circle cx="-30" cy="-136" r="9" fill="none" stroke="#ffb199" stroke-width=".8" opacity=".6"/><circle cx="-30" cy="-136" r="4.5" fill="none" stroke="#ffb199" stroke-width=".8" opacity=".6"/><circle cx="-36" cy="-141" r="2.4" fill="#fff" opacity=".8"/><path d="M10 -108L26 -124" stroke="#8a8f86" stroke-width="4"/><circle cx="30" cy="-136" r="19" fill="#34471d" stroke="#6e8c3a" stroke-width="4"/><circle cx="30" cy="-136" r="14" fill="url(#eyeR)" class="eye-PAYOUT"/><circle cx="30" cy="-136" r="9" fill="none" stroke="#ffb199" stroke-width=".8" opacity=".6"/><circle cx="30" cy="-136" r="4.5" fill="none" stroke="#ffb199" stroke-width=".8" opacity=".6"/><circle cx="24" cy="-141" r="2.4" fill="#fff" opacity=".8"/><path d="M-46 -32C-46 -86 -30 -112 0 -112C30 -112 46 -86 46 -32Z" fill="#6e8c3a" stroke="#34471d" stroke-width="2"/><path d="M20 -108C36 -96 44 -70 46 -32H30C30 -70 26 -96 12 -110Z" fill="#3b8fa3" opacity=".45"/><path d="M-26 -34C-26 -72 -16 -90 0 -90C16 -90 26 -72 26 -34Z" fill="#34471d" opacity=".55"/><path d="M-26 -34C-26 -72 -16 -90 0 -90C16 -90 26 -72 26 -34Z" fill="none" stroke="#9dbb52" stroke-width="2" opacity=".6"/><path d="M-40 -58h8v6h-8zM28 -84l6 6" stroke="#7c3a1a" stroke-width="2" opacity=".8"/><circle cx="-14" cy="-60" r="2" fill="#9dbb52"/><circle cx="14" cy="-60" r="2" fill="#9dbb52"/><circle cx="-14" cy="-44" r="2" fill="#9dbb52"/><circle cx="14" cy="-44" r="2" fill="#9dbb52"/><circle cx="-36" cy="-70" r="2" fill="#9dbb52"/><circle cx="36" cy="-70" r="2" fill="#9dbb52"/><circle cx="-30" cy="-92" r="2" fill="#9dbb52"/><circle cx="30" cy="-92" r="2" fill="#9dbb52"/><rect x="-48" y="-36" width="96" height="10" fill="#2a2e22" stroke="#34471d"/><rect x="-40.0" y="-33" width="7" height="5" class="led-PAYOUT" style="animation-delay:0.00s"/><rect x="-29.5" y="-33" width="7" height="5" class="led-PAYOUT" style="animation-delay:0.09s"/><rect x="-19.0" y="-33" width="7" height="5" class="led-PAYOUT" style="animation-delay:0.18s"/><rect x="-8.5" y="-33" width="7" height="5" class="led-PAYOUT" style="animation-delay:0.27s"/><rect x="2.0" y="-33" width="7" height="5" class="led-PAYOUT" style="animation-delay:0.36s"/><rect x="12.5" y="-33" width="7" height="5" class="led-PAYOUT" style="animation-delay:0.45s"/><rect x="23.0" y="-33" width="7" height="5" class="led-PAYOUT" style="animation-delay:0.54s"/><rect x="33.5" y="-33" width="7" height="5" class="led-PAYOUT" style="animation-delay:0.63s"/></g><animateTransform attributeName="transform" type="translate" values="0 0;0 -18;0 0;0 0" keyTimes="0;.3;.6;1" dur="1.3s" repeatCount="indefinite" additive="sum"/></g></g></g><text x="744" y="376" font-size="10" fill="#6c7a66" text-anchor="start" font-weight="400" letter-spacing="1.5" >EYES</text><text x="936" y="376" font-size="11" fill="#b8ff4f" text-anchor="end" font-weight="700" letter-spacing="0" >full burn</text><text x="744" y="396" font-size="10" fill="#6c7a66" text-anchor="start" font-weight="400" letter-spacing="1.5" >LEDS</text><text x="936" y="396" font-size="11" fill="#b8ff4f" text-anchor="end" font-weight="700" letter-spacing="0" >green chase</text><text x="744" y="416" font-size="10" fill="#6c7a66" text-anchor="start" font-weight="400" letter-spacing="1.5" >SERVO</text><text x="936" y="416" font-size="11" fill="#b8ff4f" text-anchor="end" font-weight="700" letter-spacing="0" >wave + hop</text><path d="M976 20H1176L1188 32V438L1176 450H976L964 438V32Z" fill="#0a0e0b" stroke="#34471d" stroke-width="2" /><circle cx="972" cy="28" r="2.4" fill="#34471d"/><circle cx="971.3" cy="27.3" r="1.1" fill="#9dbb52" opacity=".55"/><circle cx="1180" cy="28" r="2.4" fill="#34471d"/><circle cx="1179.3" cy="27.3" r="1.1" fill="#9dbb52" opacity=".55"/><circle cx="972" cy="442" r="2.4" fill="#34471d"/><circle cx="971.3" cy="441.3" r="1.1" fill="#9dbb52" opacity=".55"/><circle cx="1180" cy="442" r="2.4" fill="#34471d"/><circle cx="1179.3" cy="441.3" r="1.1" fill="#9dbb52" opacity=".55"/><text x="980" y="50" font-size="10" fill="#6c7a66" text-anchor="start" font-weight="400" letter-spacing="2" >EVENT</text><text x="980" y="68" font-size="13" fill="#c9d6bf" text-anchor="start" font-weight="700" letter-spacing="0" >guard.halt</text><rect x="976" y="80" width="200" height="36" fill="#000"/><rect x="976" y="80" width="200" height="36" fill="url(#unlit)"/><path d="M0.0 0.0h2.3v2.3h-2.3zM12.8 0.0h2.3v2.3h-2.3zM0.0 3.2h2.3v2.3h-2.3zM12.8 3.2h2.3v2.3h-2.3zM0.0 6.4h2.3v2.3h-2.3zM12.8 6.4h2.3v2.3h-2.3zM0.0 9.6h2.3v2.3h-2.3zM3.2 9.6h2.3v2.3h-2.3zM6.4 9.6h2.3v2.3h-2.3zM9.6 9.6h2.3v2.3h-2.3zM12.8 9.6h2.3v2.3h-2.3zM0.0 12.8h2.3v2.3h-2.3zM12.8 12.8h2.3v2.3h-2.3zM0.0 16.0h2.3v2.3h-2.3zM12.8 16.0h2.3v2.3h-2.3zM0.0 19.2h2.3v2.3h-2.3zM12.8 19.2h2.3v2.3h-2.3zM22.4 0.0h2.3v2.3h-2.3zM25.6 0.0h2.3v2.3h-2.3zM28.8 0.0h2.3v2.3h-2.3zM19.2 3.2h2.3v2.3h-2.3zM32.0 3.2h2.3v2.3h-2.3zM19.2 6.4h2.3v2.3h-2.3zM32.0 6.4h2.3v2.3h-2.3zM19.2 9.6h2.3v2.3h-2.3zM22.4 9.6h2.3v2.3h-2.3zM25.6 9.6h2.3v2.3h-2.3zM28.8 9.6h2.3v2.3h-2.3zM32.0 9.6h2.3v2.3h-2.3zM19.2 12.8h2.3v2.3h-2.3zM32.0 12.8h2.3v2.3h-2.3zM19.2 16.0h2.3v2.3h-2.3zM32.0 16.0h2.3v2.3h-2.3zM19.2 19.2h2.3v2.3h-2.3zM32.0 19.2h2.3v2.3h-2.3zM38.4 0.0h2.3v2.3h-2.3zM38.4 3.2h2.3v2.3h-2.3zM38.4 6.4h2.3v2.3h-2.3zM38.4 9.6h2.3v2.3h-2.3zM38.4 12.8h2.3v2.3h-2.3zM38.4 16.0h2.3v2.3h-2.3zM38.4 19.2h2.3v2.3h-2.3zM41.6 19.2h2.3v2.3h-2.3zM44.8 19.2h2.3v2.3h-2.3zM48.0 19.2h2.3v2.3h-2.3zM51.2 19.2h2.3v2.3h-2.3zM57.6 0.0h2.3v2.3h-2.3zM60.8 0.0h2.3v2.3h-2.3zM64.0 0.0h2.3v2.3h-2.3zM67.2 0.0h2.3v2.3h-2.3zM70.4 0.0h2.3v2.3h-2.3zM64.0 3.2h2.3v2.3h-2.3zM64.0 6.4h2.3v2.3h-2.3zM64.0 9.6h2.3v2.3h-2.3zM64.0 12.8h2.3v2.3h-2.3zM64.0 16.0h2.3v2.3h-2.3zM64.0 19.2h2.3v2.3h-2.3z" fill="#ff2d17" transform="translate(1039.2 87)" filter="url(#glow)"/><ellipse cx="1076.0" cy="340" rx="70" ry="9" fill="#000" opacity=".8"/><path d="M978 346H1174" stroke="#1d2a1c" stroke-width="2"/><g transform="translate(1076.0 338)"><g><g><path d="M-20.0 -2.0L-13.0 -5.0L-27.0 -8.4L-13.0 -11.8L-27.0 -15.2L-13.0 -18.6L-27.0 -22.0L-13.0 -25.4L-20.0 -30.0M20.0 -2.0L27.0 -5.0L13.0 -8.4L27.0 -11.8L13.0 -15.2L27.0 -18.6L13.0 -22.0L27.0 -25.4L20.0 -30.0" stroke="#8a8f86" stroke-width="3" fill="none"/></g><ellipse cx="-20" cy="0" rx="14" ry="5" fill="#34471d" stroke="#6e8c3a"/><ellipse cx="20" cy="0" rx="14" ry="5" fill="#34471d" stroke="#6e8c3a"/><g><g><path d="M-44 -60L-64 -38" stroke="#6e8c3a" stroke-width="8" stroke-linecap="round"/><path d="M-44 -60L-64 -38" stroke="#7c3a1a" stroke-width="2" stroke-dasharray="2 5"/><circle cx="-44" cy="-60" r="7" fill="#6e8c3a" stroke="#34471d" stroke-width="2"/><circle cx="-66.0" cy="-26.0" r="4.5" fill="#6e8c3a" stroke="#34471d"/><circle cx="-73.0" cy="-32.0" r="4.5" fill="#6e8c3a" stroke="#34471d"/><circle cx="-58.0" cy="-25.0" r="4.5" fill="#6e8c3a" stroke="#34471d"/><animateTransform attributeName="transform" type="rotate" values="0 -44 -60;-18 -44 -60;-18 -44 -60;0 -44 -60" keyTimes="0;.2;.85;1" dur="6s" begin="0s" repeatCount="indefinite" additive="sum"/></g><g><path d="M44 -60L64 -38" stroke="#6e8c3a" stroke-width="8" stroke-linecap="round"/><path d="M44 -60L64 -38" stroke="#7c3a1a" stroke-width="2" stroke-dasharray="2 5"/><circle cx="44" cy="-60" r="7" fill="#6e8c3a" stroke="#34471d" stroke-width="2"/><circle cx="66.0" cy="-26.0" r="4.5" fill="#6e8c3a" stroke="#34471d"/><circle cx="73.0" cy="-32.0" r="4.5" fill="#6e8c3a" stroke="#34471d"/><circle cx="58.0" cy="-25.0" r="4.5" fill="#6e8c3a" stroke="#34471d"/><animateTransform attributeName="transform" type="rotate" values="0 44 -60;18 44 -60;18 44 -60;0 44 -60" keyTimes="0;.2;.85;1" dur="6s" begin="0s" repeatCount="indefinite" additive="sum"/></g><g><path d="M-10 -108L-26 -124" stroke="#8a8f86" stroke-width="4"/><circle cx="-30" cy="-136" r="19" fill="#34471d" stroke="#6e8c3a" stroke-width="4"/><circle cx="-30" cy="-136" r="14" fill="url(#eyeR)" class="eye-HALT"/><circle cx="-30" cy="-136" r="9" fill="none" stroke="#ffb199" stroke-width=".8" opacity=".6"/><circle cx="-30" cy="-136" r="4.5" fill="none" stroke="#ffb199" stroke-width=".8" opacity=".6"/><circle cx="-36" cy="-141" r="2.4" fill="#fff" opacity=".8"/><path d="M10 -108L26 -124" stroke="#8a8f86" stroke-width="4"/><circle cx="30" cy="-136" r="19" fill="#34471d" stroke="#6e8c3a" stroke-width="4"/><circle cx="30" cy="-136" r="14" fill="url(#eyeR)" class="eye-HALT"/><circle cx="30" cy="-136" r="9" fill="none" stroke="#ffb199" stroke-width=".8" opacity=".6"/><circle cx="30" cy="-136" r="4.5" fill="none" stroke="#ffb199" stroke-width=".8" opacity=".6"/><circle cx="24" cy="-141" r="2.4" fill="#fff" opacity=".8"/><path d="M-46 -32C-46 -86 -30 -112 0 -112C30 -112 46 -86 46 -32Z" fill="#6e8c3a" stroke="#34471d" stroke-width="2"/><path d="M20 -108C36 -96 44 -70 46 -32H30C30 -70 26 -96 12 -110Z" fill="#3b8fa3" opacity=".45"/><path d="M-26 -34C-26 -72 -16 -90 0 -90C16 -90 26 -72 26 -34Z" fill="#34471d" opacity=".55"/><path d="M-26 -34C-26 -72 -16 -90 0 -90C16 -90 26 -72 26 -34Z" fill="none" stroke="#9dbb52" stroke-width="2" opacity=".6"/><path d="M-40 -58h8v6h-8zM28 -84l6 6" stroke="#7c3a1a" stroke-width="2" opacity=".8"/><circle cx="-14" cy="-60" r="2" fill="#9dbb52"/><circle cx="14" cy="-60" r="2" fill="#9dbb52"/><circle cx="-14" cy="-44" r="2" fill="#9dbb52"/><circle cx="14" cy="-44" r="2" fill="#9dbb52"/><circle cx="-36" cy="-70" r="2" fill="#9dbb52"/><circle cx="36" cy="-70" r="2" fill="#9dbb52"/><circle cx="-30" cy="-92" r="2" fill="#9dbb52"/><circle cx="30" cy="-92" r="2" fill="#9dbb52"/><rect x="-48" y="-36" width="96" height="10" fill="#2a2e22" stroke="#34471d"/><rect x="-40.0" y="-33" width="7" height="5" class="led-HALT" style="animation-delay:0.00s"/><rect x="-29.5" y="-33" width="7" height="5" class="led-HALT" style="animation-delay:0.09s"/><rect x="-19.0" y="-33" width="7" height="5" class="led-HALT" style="animation-delay:0.18s"/><rect x="-8.5" y="-33" width="7" height="5" class="led-HALT" style="animation-delay:0.27s"/><rect x="2.0" y="-33" width="7" height="5" class="led-HALT" style="animation-delay:0.36s"/><rect x="12.5" y="-33" width="7" height="5" class="led-HALT" style="animation-delay:0.45s"/><rect x="23.0" y="-33" width="7" height="5" class="led-HALT" style="animation-delay:0.54s"/><rect x="33.5" y="-33" width="7" height="5" class="led-HALT" style="animation-delay:0.63s"/><animateTransform attributeName="transform" type="rotate" values="0 0 -40;9 0 -40;9 0 -40;0 0 -40" keyTimes="0;.2;.85;1" dur="6s" begin="0s" repeatCount="indefinite" additive="sum"/></g></g></g></g><text x="980" y="376" font-size="10" fill="#6c7a66" text-anchor="start" font-weight="400" letter-spacing="1.5" >EYES</text><text x="1172" y="376" font-size="11" fill="#ff2d17" text-anchor="end" font-weight="700" letter-spacing="0" >dim / stutter</text><text x="980" y="396" font-size="10" fill="#6c7a66" text-anchor="start" font-weight="400" letter-spacing="1.5" >LEDS</text><text x="1172" y="396" font-size="11" fill="#ff2d17" text-anchor="end" font-weight="700" letter-spacing="0" >red strobe</text><text x="980" y="416" font-size="10" fill="#6c7a66" text-anchor="start" font-weight="400" letter-spacing="1.5" >SERVO</text><text x="1172" y="416" font-size="11" fill="#ff2d17" text-anchor="end" font-weight="700" letter-spacing="0" >head droop</text><rect x="0" y="0" width="1200" height="470" fill="#000" filter="url(#g)" opacity="0.1"/><rect x="0" y="0" width="1200" height="470" fill="#000" filter="url(#gs)" opacity="0.050"/></svg>